<?xml version="1.0" standalone="no"?>
<!DOCTYPE svg PUBLIC "-//W3C//DTD SVG 20010904//EN"
 "http://www.w3.org/TR/2001/REC-SVG-20010904/DTD/svg10.dtd">
<svg version="1.0" xmlns="http://www.w3.org/2000/svg"
 width="600.000000pt" height="600.000000pt" viewBox="0 0 600.000000 600.000000"
 preserveAspectRatio="xMidYMid meet">
<metadata>
Created by potrace 1.15, written by Peter Selinger 2001-2017
</metadata>
<g transform="translate(0.000000,600.000000) scale(0.100000,-0.100000)"
fill="#000000" stroke="none">
<path d="M2842 5733 c-129 -183 -216 -409 -224 -583 -3 -50 -1 -55 19 -58 26
-4 43 28 43 77 0 72 85 275 159 379 l38 52 40 -42 c52 -57 105 -133 141 -204
34 -69 79 -191 87 -237 3 -18 10 -48 15 -67 5 -19 11 -57 15 -85 7 -56 25 -81
72 -101 29 -13 39 -11 108 15 113 44 232 57 369 42 112 -13 166 -31 166 -54 0
-33 -138 -195 -266 -312 -55 -49 -116 -105 -137 -124 -58 -54 -68 -117 -33
-211 8 -19 22 -62 31 -95 10 -33 21 -71 26 -85 16 -48 49 -202 49 -226 0 -24
-1 -24 -27 -10 -47 25 -193 146 -304 253 -114 109 -155 133 -229 133 -73 0
-111 -22 -243 -138 -67 -59 -140 -121 -161 -137 l-39 -30 6 50 c3 28 8 59 11
70 3 11 19 76 36 145 30 120 30 126 15 172 -20 63 -75 114 -200 185 -118 67
-207 127 -303 203 -80 63 -81 60 33 98 207 70 442 45 699 -73 53 -24 86 -20
86 11 0 18 -126 139 -200 192 -247 176 -553 228 -838 141 -157 -47 -287 -140
-316 -226 -44 -128 4 -230 232 -485 53 -60 98 -108 101 -108 3 -1 34 -27 69
-58 l63 -57 -22 -105 c-42 -206 -23 -605 36 -746 40 -96 118 -153 220 -162 81
-6 127 10 248 86 150 94 240 167 362 290 l113 114 62 -51 c79 -66 245 -146
420 -204 236 -77 288 -81 368 -29 53 34 79 86 92 183 28 217 -11 465 -109 692
l-21 48 89 102 c222 257 299 417 270 561 -36 173 -183 256 -451 256 -92 0
-237 -21 -312 -45 -63 -19 -65 -19 -75 8 -35 90 -48 120 -75 177 -55 113 -121
207 -209 299 -58 61 -162 141 -182 141 -8 0 -22 -12 -33 -27z"/>
<path d="M3030 3053 c0 -5 18 -39 40 -78 50 -90 70 -133 77 -169 5 -25 4 -28
-12 -22 -80 30 -354 45 -488 25 -249 -36 -379 -167 -307 -309 25 -49 53 -76
111 -105 87 -45 162 -58 304 -52 201 8 346 54 433 139 l40 38 88 -31 c197 -69
341 -155 396 -234 25 -37 52 -121 43 -136 -2 -3 -35 2 -74 12 -96 24 -360 65
-521 81 -80 8 -271 13 -470 13 -351 0 -474 -9 -625 -47 -269 -66 -372 -223
-260 -394 64 -97 225 -195 410 -249 215 -62 576 -95 829 -75 248 19 426 62
609 148 l97 45 26 -24 c46 -43 116 -142 148 -209 27 -58 30 -75 30 -160 0
-113 -18 -160 -97 -247 -137 -149 -377 -240 -792 -300 -92 -13 -189 -17 -415
-17 -259 0 -310 3 -416 22 -178 32 -347 92 -383 136 -44 53 47 105 239 136
197 31 513 42 905 30 340 -11 454 -5 483 24 27 26 -9 49 -125 80 -32 9 -101
27 -153 41 -386 105 -827 168 -1170 168 -221 0 -310 -12 -450 -59 -146 -49
-284 -157 -330 -259 -35 -77 -33 -190 5 -270 51 -108 179 -222 320 -286 197
-89 480 -160 795 -201 163 -20 794 -17 979 5 299 36 504 83 719 162 209 78
364 174 493 305 70 71 94 104 132 181 65 133 80 199 74 334 -5 127 -22 185
-87 299 -57 99 -185 229 -304 307 -87 57 -274 155 -323 168 -22 6 -23 12 -26
107 -3 94 -6 106 -45 186 -63 129 -166 230 -307 300 -51 26 -243 93 -351 123
-58 16 -61 19 -77 62 -22 59 -118 204 -158 237 -29 25 -59 34 -59 19z m-60
-463 c19 -4 48 -11 65 -15 l30 -7 -25 -13 c-14 -8 -55 -21 -93 -30 -115 -29
-345 -8 -391 35 -13 13 34 33 99 41 68 8 262 2 315 -11z m-145 -665 c154 -19
245 -34 459 -77 155 -31 157 -32 122 -45 -20 -6 -87 -21 -148 -33 -302 -55
-984 6 -1058 94 -27 33 31 61 150 75 90 10 335 3 475 -14z"/>
</g>
</svg>
